# xmcd
#
# Track frame offsets:
#	150
#	5309
#	24699
#	41409
#	53749
#	63844
#	87316
#	101657
#	117675
#	129665
#	146274
#	153516
#	174219
#	190122
#
# Disc length: 2666 seconds
#
# Revision: 1
# Processed by: cddbd v1.5.2PL0 Copyright (c) Steve Scherf et al.
# Submitted via: audiograbber 1.83.01
#
DISCID=b20a680e
DTITLE=Kris Dane - Rise and down of the black Stallione
DYEAR=2008
DGENRE=Pop
TTITLE0=Merci Bon Dieu ( Part 1 )
TTITLE1=From here to Grace
TTITLE2=Missy
TTITLE3=Anytime you want!
TTITLE4=Mary Jane
TTITLE5=How can a girl adore a man so bad
TTITLE6=The damage done
TTITLE7=To the Belfry
TTITLE8=Train Song
TTITLE9=Sub Rosa
TTITLE10=Merci Bon Dieu ( Part 2 )
TTITLE11=Private Lee
TTITLE12=The Devil racks my soul
TTITLE13=Bless Y'r Soul
EXTD=
EXTT0=
EXTT1=
EXTT2=
EXTT3=
EXTT4=
EXTT5=
EXTT6=
EXTT7=
EXTT8=
EXTT9=
EXTT10=
EXTT11=
EXTT12=
EXTT13=
PLAYORDER=
